<svg width="18" height="17" viewBox="0 0 18 17" fill="none" xmlns="http://www.w3.org/2000/svg">
<path fill-rule="evenodd" clip-rule="evenodd" d="M18 7.0263C18 3.152 13.9625 0 9 0C4.0377 0 0 3.152 0 7.0263C0 10.4994 3.2019 13.4086 7.527 13.9589C7.8199 14.0196 8.2188 14.1451 8.3198 14.386C8.4106 14.6047 8.3793 14.9474 8.3488 15.1685C8.3488 15.1685 8.2436 15.7796 8.2204 15.91C8.1814 16.1288 8.0395 16.7659 9 16.3767C9.9608 15.9874 14.1828 13.4404 16.071 11.3494C17.3754 9.9736 18 8.577 18 7.0263ZM3.4146 9.1339C3.1861 9.1339 3 8.9408 3 8.703V5.4397C3 5.2022 3.2116 5.0089 3.48 5.0089C3.7484 5.0089 3.9 5.2006 3.9 5.4397V8.2724H4.9854C5.2143 8.2724 5.4 8.4657 5.4 8.703C5.4 8.9408 5.2143 9.1339 4.9854 9.1339H3.4146ZM7.2 8.703C7.2 8.9408 6.9981 9.1339 6.7501 9.1339C6.5019 9.1339 6.3 8.9408 6.3 8.703V5.4397C6.3 5.2022 6.5019 5.0089 6.7501 5.0089C6.9981 5.0089 7.2 5.2022 7.2 5.4397V8.703ZM11.7 8.703C11.7 8.889 11.5717 9.0532 11.3797 9.1116C11.3316 9.1265 11.2813 9.1339 11.2309 9.1339C11.0849 9.1339 10.9449 9.0696 10.8566 8.9616L9.0372 6.6842V8.703C9.0372 8.9408 8.8272 9.1339 8.5687 9.1339C8.3103 9.1339 8.1 8.9408 8.1 8.703V5.4397C8.1 5.2541 8.2288 5.0899 8.4203 5.0312C8.4686 5.0162 8.5187 5.0089 8.5691 5.0089C8.7153 5.0089 8.8554 5.0731 8.9431 5.1812L10.7631 7.4587V5.4397C10.7631 5.2022 10.9735 5.0089 11.2316 5.0089C11.4902 5.0089 11.7 5.2022 11.7 5.4397V8.703ZM14.5853 6.6407C14.8142 6.6407 15 6.8339 15 7.0715C15 7.3088 14.8142 7.502 14.5853 7.502H13.4294V8.2724H14.5853C14.8138 8.2724 15 8.4657 15 8.703C15 8.9408 14.8138 9.1339 14.5853 9.1339H13.0145C12.7863 9.1339 12.6 8.9408 12.6 8.703V7.0726V7.0715V5.4397C12.6 5.2022 12.7859 5.0089 13.0145 5.0089H14.5853C14.8142 5.0089 15 5.2022 15 5.4397C15 5.6772 14.8142 5.8702 14.5853 5.8702H13.4294V6.6407H14.5853Z" fill="white"/>
</svg>
