<svg width="20" height="16" viewBox="0 0 20 16" fill="none" xmlns="http://www.w3.org/2000/svg">
<path fill-rule="evenodd" clip-rule="evenodd" d="M10 -0.00537109C10.855 -0.00537109 11.732 0.016629 12.582 0.052629L13.586 0.100629L14.547 0.157629L15.447 0.218629L16.269 0.282629C17.161 0.350907 18.0004 0.731576 18.6395 1.35767C19.2786 1.98376 19.6764 2.81517 19.763 3.70563L19.803 4.13063L19.878 5.04063C19.948 5.98363 20 7.01163 20 7.99463C20 8.97763 19.948 10.0056 19.878 10.9486L19.803 11.8586C19.79 12.0046 19.777 12.1456 19.763 12.2836C19.6764 13.1742 19.2784 14.0058 18.6391 14.6319C17.9999 15.258 17.1602 15.6386 16.268 15.7066L15.448 15.7696L14.548 15.8316L13.586 15.8886L12.582 15.9366C11.732 15.9726 10.855 15.9946 10 15.9946C9.145 15.9946 8.268 15.9726 7.418 15.9366L6.414 15.8886L5.453 15.8316L4.553 15.7696L3.731 15.7066C2.83895 15.6384 1.99955 15.2577 1.36047 14.6316C0.721394 14.0055 0.323574 13.1741 0.237 12.2836L0.197 11.8586L0.122 10.9486C0.0455376 9.96577 0.00484402 8.98045 0 7.99463C0 7.01163 0.052 5.98363 0.122 5.04063L0.197 4.13063C0.21 3.98463 0.223 3.84363 0.237 3.70563C0.323541 2.81533 0.721217 1.98404 1.36009 1.35797C1.99897 0.7319 2.83813 0.351131 3.73 0.282629L4.551 0.218629L5.451 0.157629L6.413 0.100629L7.417 0.052629C8.268 0.016629 9.145 -0.00537109 10 -0.00537109ZM8 5.56963V10.4196C8 10.8816 8.5 11.1696 8.9 10.9396L13.1 8.51463C13.1914 8.46202 13.2673 8.38625 13.3201 8.29496C13.3729 8.20367 13.4007 8.10008 13.4007 7.99463C13.4007 7.88918 13.3729 7.78559 13.3201 7.69429C13.2673 7.603 13.1914 7.52724 13.1 7.47463L8.9 5.05063C8.80876 4.99795 8.70526 4.97023 8.5999 4.97024C8.49455 4.97026 8.39106 4.99802 8.29983 5.05072C8.20861 5.10343 8.13287 5.17923 8.08024 5.27049C8.02761 5.36176 7.99993 5.46527 8 5.57063V5.56963Z" fill="white"/>
</svg>
